# xmcd CD database file
#
# Track frame offsets:
#	150
#	24450
#	53440
#	82835
#	106055
#	138090
#	184872
#	207015
#	231600
#	253730
#
# Disc length: 3764 seconds
#
# Revision: 0
# Processed by: cddbd v1.5.1PL0 Copyright (c) Steve Scherf et al.
# Submitted via: CDex 1.51
#
DISCID=780eb20a
DTITLE=Chet Baker Quartet - The Complete Pacific Jazz Live Recordings of The Chet Baker Quartet with Russ Freeman
DYEAR=1900
DGENRE=Jazz
TTITLE0=Everything Happens To Me
TTITLE1=A Dandy Line
TTITLE2=Frenesi
TTITLE3=Moonlight In Vermont
TTITLE4=Carson City Stage (B)
TTITLE5=Billie's Bounce
TTITLE6=Stella By Starlight
TTITLE7=Line For Lyons
TTITLE8=Carson City Stage (C)
TTITLE9=All The Things You Are
EXTD=
EXTT0=
EXTT1=
EXTT2=
EXTT3=
EXTT4=
EXTT5=
EXTT6=
EXTT7=
EXTT8=
EXTT9=
PLAYORDER=
